<?xml version="1.0" encoding="utf-8"?>
<!-- Generator: Adobe Illustrator 16.0.0, SVG Export Plug-In . SVG Version: 6.00 Build 0)  -->
<!DOCTYPE svg PUBLIC "-//W3C//DTD SVG 1.1//EN" "http://www.w3.org/Graphics/SVG/1.1/DTD/svg11.dtd">
<svg version="1.1" id="Layer_2_copy_6" xmlns="http://www.w3.org/2000/svg" xmlns:xlink="http://www.w3.org/1999/xlink" x="0px"
	 y="0px" width="57.657px" height="57.654px" viewBox="0 0 57.657 57.654" enable-background="new 0 0 57.657 57.654"
	 xml:space="preserve">
<g>
	<path fill="#83D156" d="M56.405,28.794c0,7.607-2.678,14.111-8.09,19.523c-5.35,5.413-11.854,8.086-19.456,8.086
		c-7.602,0-14.109-2.673-19.521-8.086C3.986,42.904,1.252,36.4,1.252,28.794c0-7.597,2.734-14.042,8.087-19.456
		c5.41-5.413,11.919-8.086,19.521-8.086c7.601,0,14.105,2.673,19.456,8.086C53.727,14.751,56.405,21.197,56.405,28.794z
		 M48.134,28.794c0-5.289-1.882-9.845-5.653-13.616c-3.769-3.774-8.332-5.66-13.622-5.66c-5.353,0-9.852,1.886-13.683,5.66
		c-3.77,3.771-5.654,8.327-5.654,13.616c0,5.351,1.885,9.912,5.654,13.689c3.831,3.766,8.33,5.649,13.683,5.649
		c5.29,0,9.853-1.885,13.622-5.649C46.252,38.705,48.134,34.144,48.134,28.794z"/>
</g>
</svg>
